<svg width="34" height="34" viewBox="0 0 34 34" fill="none" xmlns="http://www.w3.org/2000/svg">
<path d="M23.8563 0.106349C25.5335 0.182897 26.6929 0.429353 27.7659 0.846364C28.8394 1.26355 29.6523 1.7924 30.4603 2.6003C31.268 3.40818 31.7968 4.22102 32.2142 5.29465C32.6311 6.36776 32.8775 7.52701 32.9541 9.20419C33.0489 11.2842 33.0604 12.0174 33.0604 16.5302C33.0604 21.043 33.0489 21.7762 32.9541 23.8562C32.8775 25.5334 32.6311 26.6927 32.2141 27.7661C31.7968 28.8395 31.2679 29.6524 30.4603 30.46C29.6524 31.268 28.8394 31.7969 27.7658 32.2141C26.6925 32.6311 25.5333 32.8775 23.8563 32.954C21.7767 33.0489 21.0437 33.0604 16.5302 33.0604C12.0167 33.0604 11.2837 33.0489 9.20419 32.954C7.52712 32.8775 6.36786 32.6311 5.29438 32.214C4.22095 31.7968 3.40797 31.2679 2.60024 30.4601C1.79239 29.6523 1.26349 28.8393 0.846234 27.7658C0.429294 26.6927 0.182893 25.5334 0.10635 23.8563C0.0115063 21.7776 0 21.045 0 16.5302C0 12.0154 0.0115064 11.2828 0.106351 9.2041C0.182893 7.52701 0.429294 6.36776 0.846296 5.29449C1.26345 4.22113 1.79234 3.4082 2.60016 2.60037C3.40797 1.79248 4.22095 1.2636 5.29442 0.846368C6.36739 0.429368 7.52689 0.182899 9.20408 0.106349C11.2829 0.0115053 12.0154 0 16.5302 0C21.045 0 21.7775 0.0115055 23.8563 0.106349ZM16.5302 3.67338C12.0665 3.67338 11.3838 3.6841 9.37153 3.77591C8.0945 3.8342 7.32774 3.99718 6.62514 4.27024C6.02523 4.50341 5.64404 4.75139 5.19771 5.19778C4.75128 5.6442 4.50329 6.02538 4.27025 6.62499C3.99714 7.32792 3.8342 8.09454 3.77591 9.37155C3.6841 11.3838 3.67338 12.0665 3.67338 16.5302C3.67338 20.9939 3.6841 21.6767 3.77591 23.6888C3.8342 24.9659 3.99714 25.7325 4.27017 26.4352C4.5033 27.035 4.75133 27.4163 5.19778 27.8627C5.64404 28.309 6.02523 28.557 6.62493 28.7901C7.328 29.0633 8.09459 29.2262 9.37158 29.2844C11.3846 29.3763 12.0678 29.387 16.5302 29.387C20.9927 29.387 21.6758 29.3763 23.6889 29.2844C24.9658 29.2262 25.7323 29.0633 26.4353 28.7902C27.0352 28.557 27.4164 28.309 27.8627 27.8626C28.309 27.4163 28.5571 27.0351 28.7902 26.4354C29.0633 25.7325 29.2262 24.9659 29.2845 23.6889C29.3763 21.6753 29.387 20.992 29.387 16.5302C29.387 12.0684 29.3763 11.3851 29.2845 9.37158C29.2262 8.09454 29.0633 7.32792 28.7903 6.62528C28.5571 6.02532 28.3091 5.64409 27.8627 5.19771C27.4164 4.7514 27.0352 4.50342 26.4353 4.27026C25.7326 3.99717 24.9659 3.8342 23.6888 3.77591C21.6766 3.6841 20.9939 3.67338 16.5302 3.67338ZM16.5302 25.1014C11.7965 25.1014 7.95899 21.264 7.95899 16.5302C7.95899 11.7965 11.7965 7.95899 16.5302 7.95899C21.264 7.95899 25.1014 11.7965 25.1014 16.5302C25.1014 21.264 21.264 25.1014 16.5302 25.1014ZM16.5302 21.4281C19.2352 21.4281 21.4281 19.2352 21.4281 16.5302C21.4281 13.8252 19.2352 11.6324 16.5302 11.6324C13.8252 11.6324 11.6324 13.8252 11.6324 16.5302C11.6324 19.2352 13.8252 21.4281 16.5302 21.4281ZM25.1014 9.79568C24.0871 9.79568 23.2647 8.97337 23.2647 7.95899C23.2647 6.94461 24.0871 6.1223 25.1014 6.1223C26.1158 6.1223 26.9381 6.94461 26.9381 7.95899C26.9381 8.97337 26.1158 9.79568 25.1014 9.79568Z" fill="black"/>
</svg>
